<svg width="177" height="100" viewBox="0 0 177 100" fill="none" xmlns="http://www.w3.org/2000/svg">
<path d="M52 59.0502C52 55.3864 52.7216 51.7585 54.1237 48.3737C55.5258 44.9888 57.5808 41.9132 60.1715 39.3225C62.7622 36.7318 65.8377 34.6768 69.2226 33.2747C72.6075 31.8727 76.2354 31.151 79.8992 31.151L79.8992 59.0502L52 59.0502Z" fill="#442781"/>
<path d="M52 59.0502C52 62.714 52.7216 66.3419 54.1237 69.7268C55.5258 73.1117 57.5808 76.1873 60.1715 78.7779C62.7622 81.3686 65.8377 83.4237 69.2226 84.8257C72.6075 86.2278 76.2354 86.9494 79.8992 86.9494L79.8992 59.0502L52 59.0502Z" fill="#442781"/>
<path d="M107.798 59.0502C107.798 62.714 107.077 66.3419 105.675 69.7268C104.273 73.1117 102.218 76.1873 99.6269 78.7779C97.0362 81.3686 93.9606 83.4237 90.5757 84.8257C87.1909 86.2278 83.563 86.9494 79.8992 86.9494L79.8992 59.0502L107.798 59.0502Z" fill="#442781"/>
<path d="M125 34.9478C125 46.517 115.621 55.8957 104.052 55.8957H83.1043V34.9478C83.1043 23.3787 92.483 14 104.052 14C115.621 14 125 23.3787 125 34.9478Z" fill="#FF7917"/>
</svg>
